<?xml version="1.0" encoding="UTF-8"?>
<!--Generator: Apple Native CoreSVG 175.5-->
<!DOCTYPE svg
PUBLIC "-//W3C//DTD SVG 1.1//EN"
       "http://www.w3.org/Graphics/SVG/1.1/DTD/svg11.dtd">
<svg version="1.1" xmlns="http://www.w3.org/2000/svg" xmlns:xlink="http://www.w3.org/1999/xlink" width="32.7157" height="21.9022">
 <g>
  <rect height="21.9022" opacity="0" width="32.7157" x="0" y="0"/>
  <path d="M2.86983 7.52616C2.86983 7.52616 0.973822 7.26217 0.517816 7.11817C0.301811 7.04616 0.133822 6.42217 0.133822 6.20616C0.157816 5.99016 0.277816 5.82217 0.373822 5.72616C0.805834 5.36616 1.98181 5.24616 2.50983 5.27016C2.62983 5.27016 2.89382 5.39016 2.96583 5.48616C3.10983 5.72616 2.98983 6.61415 2.98983 6.61415L3.63782 7.64616L2.86983 7.52616ZM29.0538 7.64616L29.7018 6.61415C29.7018 6.61415 29.5818 5.72616 29.7258 5.48616C29.7978 5.39016 30.0618 5.27016 30.1818 5.27016C30.7338 5.24616 31.9098 5.36616 32.3178 5.72616C32.4138 5.82217 32.5578 5.99016 32.5578 6.20616C32.5818 6.42217 32.3898 7.04616 32.1738 7.11817C31.7178 7.26217 29.8218 7.52616 29.8218 7.52616L29.0538 7.64616ZM29.1018 20.3902L3.61385 20.3902C3.61385 20.3902 3.44586 18.4462 3.68586 18.1102C4.06986 17.5581 5.48586 17.0781 6.15788 17.0062C8.34187 16.7902 16.3819 16.7902 16.3819 16.7902C16.3819 16.7902 24.4219 16.7662 26.6059 17.0062C27.2779 17.0782 28.6939 17.5582 29.0779 18.1102C29.2938 18.4462 29.1018 20.3902 29.1018 20.3902ZM26.3178 20.7022C25.7178 20.7022 25.0699 20.7022 24.3499 20.7022C23.6778 20.7022 23.0299 20.7022 22.4059 20.7022L10.3099 20.7022C9.70986 20.7022 9.03785 20.7022 8.36586 20.7022C2.89385 20.7502 1.09385 20.6542 0.493852 19.8862C0.109857 19.3822 0.0618399 18.4462 0.0378458 15.6382C0.0378458 15.0862 0.0378458 14.4862 0.0138516 13.8862C-0.0101425 12.3502-0.0341367 10.8862 0.229857 9.83016C0.949857 7.04616 3.30187 6.71016 4.28586 6.68616C4.30986 6.68616 4.30986 6.66217 4.30986 6.66217C4.59785 5.75016 5.14986 4.62217 5.55785 3.83016C7.23785 0.470156 8.53385 0.302168 11.0299 0.230156L11.4139 0.230156C13.9578 0.158145 18.7339 0.158145 21.2778 0.230156L21.6618 0.230156C24.1578 0.302168 25.4539 0.470156 27.1339 3.83016C27.5659 4.69415 28.1178 5.77415 28.4059 6.66217C28.4059 6.66217 28.4059 6.68616 28.4299 6.68616C29.4139 6.71016 31.7659 7.07016 32.4859 9.83016C32.7499 10.8622 32.7259 12.3262 32.7019 13.8862L32.7019 13.8862C32.6779 14.4862 32.6779 15.0862 32.6779 15.6622C32.6539 18.4702 32.6059 19.4062 32.2219 19.9102C31.6938 20.5342 30.2778 20.7022 26.3178 20.7022ZM10.3098 19.2382L22.4058 19.2382C23.0058 19.2382 23.6778 19.2382 24.3498 19.2382C26.5818 19.2622 30.2778 19.2862 31.0698 18.9502C31.1898 18.4702 31.2138 16.8862 31.2138 15.6142C31.2138 15.0382 31.2138 14.4382 31.2378 13.8382L31.2378 13.8382C31.2618 12.3982 31.2858 11.0302 31.0698 10.1902C30.6378 8.51019 29.3658 8.12619 28.3818 8.12619C27.7578 8.1022 27.2058 7.69418 27.0139 7.09418C26.7739 6.30217 26.2459 5.29418 25.8378 4.47817C24.4458 1.74217 23.7978 1.71817 21.6139 1.67019L21.2299 1.67019C18.7099 1.59817 13.9578 1.59817 11.4619 1.67019L11.0779 1.67019C8.89388 1.71817 8.22187 1.7422 6.85388 4.47817C6.46989 5.24616 5.94187 6.30217 5.67788 7.11817C5.48586 7.71817 4.93388 8.12616 4.30989 8.15019C3.32589 8.17418 2.05388 8.55817 1.6219 10.2142C1.40589 11.0782 1.42989 12.4222 1.45391 13.8622C1.4779 14.4622 1.4779 15.0622 1.4779 15.6382C1.4779 16.9342 1.5019 18.5182 1.6219 18.9982C2.41391 19.3342 6.10989 19.3102 8.3419 19.2862C9.03785 19.2622 9.70983 19.2382 10.3098 19.2382ZM1.54983 19.5502L5.41382 20.1262C5.41382 20.1262 5.43782 21.9022 5.24583 21.9022C3.61382 21.9022 2.07785 21.9022 1.04583 21.9022C0.877846 21.9022 0.613822 21.8302 0.54184 21.6862C0.229828 21.0382 0.253852 18.3502 0.253852 18.3502L1.54983 19.5502ZM32.4858 18.3502C32.4858 18.3502 32.5098 21.0381 32.1978 21.6862C32.1258 21.8302 31.8618 21.9022 31.6939 21.9022C30.6618 21.9022 29.1259 21.9022 27.4939 21.9022C27.3018 21.9022 27.3259 20.1262 27.3259 20.1262L31.1899 19.5502L32.4858 18.3502Z" fill="#080D0E" fill-opacity="0.85"/>
  <path d="M12.6618 9.99817C12.6618 10.2142 12.8298 10.3822 13.0458 10.3822L15.9498 10.3822L14.4138 14.5342C14.1978 15.0862 14.7978 15.3742 15.1578 14.9422L19.8378 9.06217C19.9338 8.96616 20.0058 8.82217 20.0058 8.72616C20.0058 8.51016 19.8138 8.36616 19.5978 8.36616L16.6938 8.36616L18.2298 4.21415C18.4458 3.66214 17.8458 3.35016 17.5098 3.80616L12.8058 9.68616C12.7098 9.80616 12.6618 9.90217 12.6618 9.99817Z" fill="#080D0E" fill-opacity="0.85"/>
  <path d="M4.04583 11.9662C4.62184 11.9422 7.38184 12.1822 8.50983 12.3022C8.82184 12.3262 9.68583 12.6142 9.68583 12.6142C9.68583 12.6142 7.98184 10.4542 7.23785 10.0462C6.70986 9.7582 5.48583 9.6382 4.88583 9.61418C4.62184 9.61418 4.09382 9.54217 3.82983 9.61418C3.70983 9.66217 3.44583 9.78217 3.34983 9.87817C3.15782 10.0942 2.98983 10.5022 2.94184 10.7422C2.77385 11.5582 2.77385 12.3742 2.82184 13.3582C2.86983 14.1022 3.08583 15.6622 3.27785 16.3102C3.30184 16.4062 3.44583 16.5982 3.54184 16.6462C3.70983 16.7422 3.80583 16.6942 3.92583 16.5982C3.99785 16.5262 4.14184 16.4302 4.11785 16.3102C4.04583 15.5902 3.78184 14.1502 3.75785 13.3342C3.75785 13.0222 3.68583 12.3742 3.78184 12.1342C3.82983 12.0622 3.94983 11.9902 4.04583 11.9662ZM28.6698 11.9662C28.0938 11.9422 25.3338 12.1822 24.2058 12.3022C23.8938 12.3262 23.0298 12.6142 23.0298 12.6142C23.0298 12.6142 24.7338 10.4542 25.4778 10.0462C26.0058 9.7582 27.2298 9.6382 27.8298 9.61418C28.0938 9.61418 28.6218 9.54217 28.8858 9.61418C29.0058 9.66217 29.2698 9.78217 29.3658 9.87817C29.5578 10.0942 29.7258 10.5022 29.7738 10.7422C29.9418 11.5582 29.9418 12.3742 29.8938 13.3582C29.8458 14.1022 29.6298 15.6622 29.4378 16.3102C29.4138 16.4062 29.2698 16.5982 29.1738 16.6462C29.0058 16.7422 28.9098 16.6942 28.7898 16.5982C28.7178 16.5262 28.5738 16.4302 28.5978 16.3102C28.6698 15.5902 28.9338 14.1502 28.9578 13.3342C28.9578 13.0222 29.0298 12.3742 28.9338 12.1342C28.9098 12.0622 28.7658 11.9902 28.6698 11.9662Z" fill="#080D0E" fill-opacity="0.85"/>
 </g>
</svg>
